<?xml version="1.0" encoding="UTF-8"?>
<!-- Generated by Pixelmator Pro 3.7.1 -->
<svg width="512" height="512" viewBox="0 0 512 512" xmlns="http://www.w3.org/2000/svg">
    <g id="Group-copy">
        <path id="Path" fill="#e15b37" stroke="none" d="M 256 66 L 420.5 161 L 256 256 L 91.5 161 Z"/>
        <path id="path1" fill="#c94020" stroke="none" d="M 91.5 161 L 256 256 L 256 446 L 91.5 351 Z"/>
        <path id="path2" fill="#b03518" stroke="none" d="M 256 256 L 420.5 161 L 420.5 351 L 256 446 Z"/>
    </g>
    <path id="path3" fill="none" stroke="#000000" stroke-width="2.5" stroke-opacity="0.098039" stroke-linejoin="round" d="M 256 66 L 420.5 161 L 420.5 351 L 256 446 L 91.5 351 L 91.5 161 Z"/>
    <path id="path4" fill="#000000" stroke="#000000" stroke-width="2" stroke-opacity="0.078431" d="M 256 256 L 91.5 161"/>
    <path id="path5" fill="#000000" stroke="#000000" stroke-width="2" stroke-opacity="0.078431" d="M 256 256 L 420.5 161"/>
    <path id="path6" fill="#000000" stroke="#000000" stroke-width="2" stroke-opacity="0.078431" d="M 256 256 L 256 446"/>
    <g id="Group-copy-2">
        <g id="Group">
            <path id="path7" fill="#ffffff" stroke="none" d="M 269.160004 121.100006 C 261.891937 125.297363 250.108063 125.297363 242.839996 121.100006 C 235.57193 116.902649 235.57193 110.097351 242.839996 105.899994 C 250.108063 101.702637 261.891937 101.702637 269.160004 105.899994 C 276.42807 110.097351 276.42807 116.902649 269.160004 121.100006 Z"/>
            <path id="path8" fill="#ffffff" stroke="none" d="M 351.410004 168.600006 C 344.141937 172.797363 332.358063 172.797363 325.089996 168.600006 C 317.82193 164.402649 317.82193 157.597351 325.089996 153.399994 C 332.358063 149.202637 344.141937 149.202637 351.410004 153.399994 C 358.67807 157.597351 358.67807 164.402649 351.410004 168.600006 Z"/>
            <path id="path9" fill="#ffffff" stroke="none" d="M 269.160004 168.600006 C 261.891937 172.797363 250.108063 172.797363 242.839996 168.600006 C 235.57193 164.402649 235.57193 157.597351 242.839996 153.399994 C 250.108063 149.202637 261.891937 149.202637 269.160004 153.399994 C 276.42807 157.597351 276.42807 164.402649 269.160004 168.600006 Z"/>
            <path id="path10" fill="#ffffff" stroke="none" d="M 186.910004 168.600006 C 179.641937 172.797363 167.858063 172.797363 160.589996 168.600006 C 153.32193 164.402649 153.32193 157.597351 160.589996 153.399994 C 167.858063 149.202637 179.641937 149.202637 186.910004 153.399994 C 194.17807 157.597351 194.17807 164.402649 186.910004 168.600006 Z"/>
            <path id="path11" fill="#ffffff" stroke="none" d="M 269.160004 216.100006 C 261.891937 220.297363 250.108063 220.297363 242.839996 216.100006 C 235.57193 211.902649 235.57193 205.097351 242.839996 200.899994 C 250.108063 196.702637 261.891937 196.702637 269.160004 200.899994 C 276.42807 205.097351 276.42807 211.902649 269.160004 216.100006 Z"/>
        </g>
        <g id="g1">
            <path id="path12" fill="#ebebeb" stroke="none" d="M 145.785004 239.850006 C 145.785004 248.24472 139.893066 251.647369 132.625 247.450012 C 125.356934 243.252625 119.465004 233.044739 119.465004 224.649994 C 119.465004 216.25528 125.356934 212.852631 132.625 217.049988 C 139.893066 221.247375 145.785004 231.455261 145.785004 239.850006 Z"/>
            <path id="path13" fill="#ebebeb" stroke="none" d="M 186.910004 311.099976 C 186.910004 319.49472 181.018066 322.897339 173.75 318.700012 C 166.481934 314.502625 160.589996 304.294739 160.589996 295.899994 C 160.589996 287.505249 166.481934 284.102631 173.75 288.299988 C 181.018066 292.497375 186.910004 302.705261 186.910004 311.099976 Z"/>
            <path id="path14" fill="#ebebeb" stroke="none" d="M 228.035004 382.349976 C 228.035004 390.74472 222.143066 394.147369 214.875 389.950012 C 207.606934 385.752625 201.714996 375.544739 201.714996 367.150024 C 201.714996 358.75528 207.606934 355.352661 214.875 359.549988 C 222.143066 363.747375 228.035004 373.955261 228.035004 382.349976 Z"/>
        </g>
        <g id="g2">
            <path id="path15" fill="#d9d9d9" stroke="none" d="M 351.410004 295.900024 C 351.410004 304.294739 345.518066 314.502625 338.25 318.700012 C 330.981934 322.897339 325.089996 319.494751 325.089996 311.100006 C 325.089996 302.705261 330.981934 292.497375 338.25 288.299988 C 345.518066 284.102631 351.410004 287.50528 351.410004 295.900024 Z"/>
        </g>
    </g>
</svg>
