<?xml version="1.0" encoding="UTF-8"?>
<svg width="453px" height="144px" viewBox="0 0 453 144" xmlns="http://www.w3.org/2000/svg" xmlns:xlink="http://www.w3.org/1999/xlink" version="1.1">
 <!-- Generated by Pixelmator Pro 2.0.8 -->
 <g id="sockethub_logo">
  <path id="path4044" d="M6.602 83.419 C8.869 85.152 11.035 86.451 13.102 87.318 15.169 88.184 17.269 88.617 19.402 88.617 21.602 88.616 23.202 88.249 24.202 87.516 25.202 86.783 25.702 85.749 25.702 84.416 25.702 83.616 25.402 82.916 24.801 82.316 24.268 81.649 23.501 81.049 22.501 80.516 21.568 79.983 20.501 79.517 19.301 79.117 18.101 78.65 16.867 78.15 15.601 77.617 14.067 77.018 12.534 76.318 11 75.518 9.467 74.718 8.067 73.752 6.8 72.619 5.533 71.419 4.5 70.052 3.699 68.519 2.899 66.919 2.499 65.086 2.499 63.019 2.498 60.753 2.931 58.653 3.798 56.719 4.731 54.786 6.03 53.152 7.697 51.818 9.363 50.485 11.363 49.451 13.696 48.718 16.03 47.917 18.63 47.517 21.496 47.516 25.296 47.516 28.63 48.182 31.497 49.515 34.363 50.781 36.864 52.214 38.997 53.814 L32.399 62.615 C30.598 61.282 28.831 60.249 27.098 59.516 25.365 58.783 23.631 58.416 21.898 58.416 18.165 58.417 16.298 59.717 16.298 62.317 16.299 63.117 16.565 63.817 17.099 64.417 17.632 64.95 18.332 65.45 19.199 65.917 20.132 66.383 21.166 66.85 22.299 67.316 23.499 67.716 24.733 68.149 25.999 68.616 27.599 69.216 29.166 69.915 30.7 70.715 32.3 71.448 33.733 72.381 35 73.514 36.334 74.647 37.4 76.047 38.201 77.714 39.001 79.314 39.401 81.247 39.402 83.514 39.402 85.78 38.969 87.88 38.103 89.814 37.236 91.747 35.936 93.448 34.203 94.914 32.47 96.315 30.337 97.448 27.804 98.315 25.271 99.116 22.337 99.516 19.004 99.517 15.737 99.517 12.371 98.884 8.904 97.618 5.504 96.352 2.537 94.686 0.003 92.62 Z" fill="#000000" fill-opacity="1" stroke="none"/>
  <path id="path4048" d="M101.305 73.504 C101.304 69.371 102.004 65.704 103.403 62.504 104.803 59.237 106.669 56.504 109.002 54.303 111.402 52.103 114.168 50.436 117.301 49.302 120.434 48.102 123.701 47.501 127.101 47.501 130.168 47.5 132.934 48.033 135.401 49.099 137.868 50.099 139.935 51.465 141.602 53.198 L134.903 62.299 C132.57 60.366 130.269 59.4 128.003 59.4 124.403 59.401 121.57 60.668 119.503 63.202 117.437 65.735 116.404 69.169 116.405 73.502 116.405 77.836 117.439 81.269 119.506 83.802 121.64 86.335 124.307 87.601 127.507 87.601 129.307 87.6 130.94 87.233 132.407 86.5 133.873 85.766 135.207 84.933 136.406 83.999 L142.308 93.298 C139.908 95.432 137.242 96.999 134.309 98 131.375 99 128.542 99.5 125.809 99.501 122.342 99.501 119.109 98.935 116.108 97.802 113.175 96.603 110.608 94.903 108.408 92.703 106.207 90.504 104.474 87.804 103.206 84.604 101.939 81.338 101.305 77.638 101.305 73.504" fill="#000000" fill-opacity="1" stroke="none"/>
  <path id="path4050" d="M150.878 28.197 L165.178 28.195 165.184 68.395 165.584 68.395 181.281 48.692 197.281 48.69 179.884 69.093 198.588 98.29 182.688 98.292 171.485 78.994 165.186 86.095 165.188 98.295 150.888 98.297 Z" fill="#000000" fill-opacity="1" stroke="none"/>
  <path id="path4052" d="M200.133 73.49 C200.132 69.49 200.798 65.89 202.131 62.689 203.464 59.423 205.197 56.689 207.33 54.489 209.53 52.222 212.03 50.488 214.829 49.287 217.629 48.087 220.529 47.487 223.529 47.486 227.062 47.486 230.129 48.085 232.729 49.285 235.396 50.484 237.596 52.151 239.33 54.284 241.13 56.417 242.464 58.95 243.331 61.883 244.198 64.75 244.632 67.883 244.633 71.283 244.633 72.616 244.566 73.85 244.433 74.983 244.3 76.05 244.167 76.883 244.034 77.483 L214.334 77.488 C215.001 81.287 216.468 84.054 218.735 85.787 221.068 87.453 223.902 88.286 227.235 88.286 230.768 88.285 234.335 87.185 237.935 84.984 L242.836 93.883 C240.303 95.617 237.47 96.984 234.337 97.985 231.27 98.985 228.237 99.485 225.237 99.486 221.704 99.486 218.403 98.92 215.337 97.787 212.27 96.588 209.603 94.888 207.336 92.689 205.069 90.422 203.302 87.689 202.035 84.489 200.767 81.29 200.134 77.623 200.133 73.49 M232.132 68.385 C232.132 65.518 231.498 63.185 230.231 61.385 228.964 59.585 226.831 58.686 223.831 58.686 221.497 58.686 219.431 59.487 217.631 61.087 215.898 62.621 214.765 65.054 214.232 68.388 Z" fill="#000000" fill-opacity="1" stroke="none"/>
  <path id="path4054" d="M255.031 60.181 L248.231 60.182 248.229 49.282 255.829 48.681 257.527 35.481 269.727 35.479 269.729 48.679 281.629 48.677 281.631 60.177 269.731 60.179 269.734 80.079 C269.734 82.879 270.301 84.913 271.435 86.179 272.635 87.379 274.202 87.979 276.135 87.978 276.935 87.978 277.735 87.878 278.535 87.678 279.402 87.478 280.168 87.244 280.835 86.978 L283.137 97.677 C281.803 98.077 280.237 98.478 278.437 98.878 276.637 99.278 274.537 99.479 272.137 99.479 269.07 99.479 266.437 99.013 264.237 98.08 262.103 97.147 260.336 95.847 258.936 94.181 257.602 92.514 256.602 90.515 255.935 88.181 255.335 85.781 255.034 83.148 255.034 80.281 Z" fill="#000000" fill-opacity="1" stroke="none"/>
  <path id="path4056" d="M291.307 28.176 L306.007 28.174 306.01 45.374 305.311 54.274 C307.178 52.607 309.344 51.073 311.811 49.673 314.277 48.206 317.21 47.472 320.61 47.472 326.01 47.471 329.911 49.237 332.311 52.77 334.778 56.303 336.012 61.203 336.013 67.469 L336.018 98.269 321.318 98.272 321.314 69.372 C321.313 65.772 320.813 63.305 319.812 61.972 318.879 60.639 317.345 59.972 315.212 59.972 313.345 59.973 311.746 60.406 310.412 61.273 309.079 62.073 307.613 63.24 306.013 64.774 L306.018 98.274 291.318 98.276 Z" fill="#000000" fill-opacity="1" stroke="none"/>
  <path id="path4058" d="M347.842 48.668 L362.542 48.665 362.546 77.565 C362.547 81.165 363.047 83.632 364.047 84.965 365.047 86.298 366.614 86.965 368.747 86.964 370.614 86.964 372.181 86.531 373.447 85.664 374.714 84.797 376.08 83.397 377.547 81.463 L377.542 48.663 392.242 48.661 392.249 98.261 380.249 98.263 379.148 91.363 378.848 91.363 C376.715 93.897 374.415 95.897 371.949 97.364 369.549 98.764 366.649 99.465 363.249 99.465 357.849 99.466 353.916 97.7 351.449 94.167 349.048 90.634 347.847 85.734 347.846 79.468 Z" fill="#000000" fill-opacity="1" stroke="none"/>
  <path id="path4060" d="M405.175 28.159 L419.875 28.157 419.877 45.357 419.478 52.957 C421.411 51.223 423.478 49.89 425.678 48.956 427.944 47.956 430.244 47.455 432.578 47.455 435.577 47.454 438.278 48.054 440.678 49.254 443.078 50.453 445.111 52.153 446.779 54.353 448.512 56.486 449.813 59.119 450.68 62.252 451.613 65.319 452.081 68.752 452.081 72.552 452.082 76.819 451.482 80.619 450.283 83.952 449.15 87.286 447.584 90.119 445.584 92.453 443.651 94.72 441.418 96.454 438.885 97.654 436.418 98.854 433.852 99.455 431.185 99.455 428.985 99.455 426.752 98.922 424.485 97.856 422.285 96.79 420.218 95.19 418.284 93.057 L417.884 93.057 416.685 98.257 405.185 98.259 Z M419.883 84.257 C421.217 85.457 422.55 86.29 423.883 86.756 425.217 87.223 426.517 87.456 427.783 87.456 430.317 87.455 432.483 86.322 434.283 84.055 436.083 81.721 436.982 77.988 436.981 72.854 436.98 63.921 434.113 59.455 428.379 59.455 425.446 59.456 422.613 60.956 419.88 63.957 Z" fill="#000000" fill-opacity="1" stroke="none"/>
  <defs>
   <radialGradient id="radial-gradient" gradientUnits="userSpaceOnUse" cx="76.186" cy="72.023" r="40" fx="76.186" fy="72.023">
    <stop offset="0" stop-color="#ff9c1f" stop-opacity="1"/>
    <stop offset="0.238" stop-color="#f23c00" stop-opacity="1"/>
    <stop offset="1" stop-color="#de0f3c" stop-opacity="0.825"/>
   </radialGradient>
  </defs>
  <path id="path4046" d="M96.175 0.02 C89.547 0.021 84.176 5.394 84.177 12.021 84.177 14.156 84.731 16.159 85.709 17.896 86.788 29.668 82.947 45.944 73.932 47.835 72.653 47.62 71.352 47.523 70.026 47.523 68.617 47.524 67.238 47.656 65.87 47.899 65.859 47.898 65.849 47.9 65.838 47.899 54.823 46.659 52.18 36.709 52.18 32.026 52.179 27.608 48.597 24.027 44.178 24.027 39.76 24.028 36.179 27.61 36.18 32.028 36.18 36.447 39.763 40.028 44.181 40.027 48.815 40.027 52.849 48.97 50.777 57.12 49.633 58.723 48.658 60.523 47.84 62.527 46.508 65.727 45.841 69.394 45.842 73.527 45.843 77.66 46.51 81.354 47.844 84.62 49.178 87.82 50.926 90.514 53.126 92.713 53.368 92.948 53.627 93.178 53.876 93.401 56.882 101.343 50.74 118.514 46.662 124.339 46.658 124.339 46.635 124.329 46.631 124.339 45.195 124.947 44.194 126.37 44.194 128.027 44.194 130.236 45.985 132.027 48.195 132.027 50.404 132.026 52.194 130.235 52.194 128.026 52.194 127.286 51.981 126.589 51.631 125.995 50.689 117.771 62.679 102.56 70.346 99.523 72.078 99.502 73.759 99.267 75.408 98.898 86.642 100.633 100.742 123.022 100.32 134.55 100.233 135.024 100.195 135.52 100.195 136.019 100.196 140.437 103.778 144.018 108.196 144.018 112.615 144.017 116.196 140.435 116.195 136.017 116.195 132.427 113.826 129.405 110.569 128.392 L110.538 128.392 C99.869 120.799 87.112 99.442 89.969 88.739 90.792 87.466 91.505 86.103 92.125 84.614 93.458 81.347 94.124 77.653 94.123 73.52 94.123 69.387 93.455 65.72 92.122 62.52 91.655 61.377 91.14 60.283 90.559 59.27 86.509 44.985 90.762 32.918 99.428 23.55 104.469 22.127 108.177 17.513 108.177 12.018 108.176 5.39 102.802 0.019 96.175 0.02 Z M70.027 59.398 C73.027 59.398 75.307 60.677 76.841 63.21 78.374 65.743 79.123 69.189 79.123 73.522 79.124 77.855 78.377 81.27 76.844 83.804 75.311 86.337 73.032 87.617 70.032 87.617 66.965 87.618 64.659 86.339 63.125 83.806 61.658 81.273 60.936 77.858 60.936 73.525 60.935 69.191 61.656 65.746 63.122 63.212 64.655 60.678 66.961 59.399 70.027 59.398 Z" fill-opacity="1" fill="url(#radial-gradient)" stroke="none"/>
 </g>
</svg>
